# xmcd CD database file
# Copyright (C) 1993-1998 Ti Kan
#
# Track frame offsets:
#	150
#	26630
#	47780
#	66298
#	91358
#	114178
#	146711
#	168158
#	183623
#	203263
#	222988
#	241306
#	262945
#
# Disc length: 3687 seconds
#
# Revision: 1
# Processed by: cddbd v1.4b41PL1 Copyright (c) Steve Scherf et al.
# Submitted via: xmcd 2.3 PL0
#
DISCID=b20e650d
DTITLE=John Primer - Cold Blooded Blues Man
DYEAR=1900
DGENRE=
TTITLE0=Dreaming
TTITLE1=Cuttin' Loose
TTITLE2=Cold Blooded Blues Man
TTITLE3=What Love Will Do
TTITLE4=Meet Her In The Dark
TTITLE5=Sad Sad Day
TTITLE6=Mojo Hand
TTITLE7=Cairo
TTITLE8=I'm Worried
TTITLE9=Malted Milk
TTITLE10=Waitin' For My Time
TTITLE11=Love In Vain
TTITLE12=Red House
EXTD=
EXTT0=
EXTT1=
EXTT2=
EXTT3=
EXTT4=
EXTT5=
EXTT6=
EXTT7=
EXTT8=
EXTT9=
EXTT10=
EXTT11=
EXTT12=
PLAYORDER=
